PathFileType	4	(X/Y/Z)	C:\Users\WrightLab\Desktop\Jo\P2_Trial14.trc
DataRate	CameraRate	NumFrames	NumMarkers	Units	OrigDataRate	OrigDataStartFrame	OrigNumFrames
100.00	100.00	       7	19	mm	100.00	586	       781
Frame#	Time	Headset_Front			Headset_Back			Headset_Left			Headset_Right			Left_Shoulder			Right_Shoulder			Sternum			C7			Left Elbow			Right Elbow			Left Wrist			Right Wrist			Left ASIS			Right ASIS			S2			Left Knee			Right Knee			Left Ankle			Right Ankle			
		X1	Y1	Z1	X2	Y2	Z2	X3	Y3	Z3	X4	Y4	Z4	X5	Y5	Z5	X6	Y6	Z6	X7	Y7	Z7	X8	Y8	Z8	X9	Y9	Z9	X10	Y10	Z10	X11	Y11	Z11	X12	Y12	Z12	X13	Y13	Z13	X14	Y14	Z14	X15	Y15	Z15	X16	Y16	Z16	X17	Y17	Z17	X18	Y18	Z18	X19	Y19	Z19	

586	5.850	-545.42389	1460.20520	-207.73521	-602.38776	1680.68616	0.55534	-689.33380	1577.77380	-105.67370	-461.47159	1538.92285	-110.31452	-750.42023	1464.89075	65.25812	-441.43985	1424.01233	-14.16448	-619.31244	1316.93164	-20.80472	-552.25940	1445.67883	132.10271	-899.52301	1186.24060	87.37211	-361.30704	1125.48865	-5.37588	-946.73083	1180.58813	-77.74377	-543.35785	1113.07336	-122.05970							-583.41077	957.90930	252.22546	-804.63605	456.97089	180.90033	-524.47137	556.10040	-3.99151	-785.70776	96.56270	206.37119	-473.62009	203.41687	156.53293	
587	5.860	-547.42780	1459.38147	-213.63522	-605.20514	1681.69751	-7.43990	-691.24963	1577.81995	-112.34606	-463.59906	1538.98206	-116.19754	-753.19037	1464.91174	56.56025	-443.31613	1424.74377	-17.66810	-620.45593	1316.90015	-26.64491	-555.90448	1446.26257	126.55359	-896.97412	1183.94897	76.83734	-361.77658	1126.54211	-6.81939	-942.38037	1177.73767	-89.00999	-541.98901	1112.22375	-127.44554	-689.53674	1040.84399	-6.03861				-584.14490	958.03125	247.19196	-806.94037	457.98618	178.05318	-528.59058	559.84711	-18.98190	-786.83301	97.27619	206.23489	-482.61264	205.89748	138.71960	
588	5.870	-549.45282	1458.66907	-219.49193	-606.19849	1681.99304	-14.46489	-692.73053	1577.60327	-117.89560	-465.75229	1537.81262	-122.48248	-755.66888	1464.96436	47.60047	-444.47891	1425.92651	-21.99730	-622.25024	1317.08215	-33.25070	-559.75745	1447.49829	120.29592	-895.63971	1181.81018	66.62118	-362.34671	1127.16663	-9.02912	-938.91705	1175.07849	-99.16087	-540.18854	1112.02612	-131.46921							-587.88214	958.38556	239.21980	-808.23718	458.91458	175.78426	-529.90466	563.87543	-33.44808	-787.74237	98.79431	207.70743	-494.68967	205.58080	122.01627	
589	5.880	-550.93610	1457.71973	-225.72307	-607.32574	1681.80762	-21.12037	-694.09686	1577.61414	-124.90476	-466.90695	1537.75220	-128.16295	-758.07880	1465.52612	38.40680	-445.89151	1426.40100	-27.21348	-623.29193	1317.62146	-39.61883	-563.57532	1447.00476	113.25786	-893.87329	1179.75012	56.27333	-362.41464	1128.17529	-9.99751	-935.94897	1172.61121	-109.82492	-538.41913	1111.76965	-136.36000							-591.01337	959.03009	233.28831	-810.08710	458.92740	173.89453	-531.36542	567.25769	-46.55009	-787.94281	98.60778	207.04280	-480.16177	221.07397	88.47153	
590	5.890	-552.58356	1457.06445	-232.47563	-606.66388	1682.06604	-28.21589	-695.66071	1577.85608	-132.28049	-469.16852	1535.62390	-135.93030	-760.55420	1465.20190	30.18262	-447.19547	1426.99426	-31.95821	-624.03528	1318.11536	-46.39391	-567.22809	1447.28162	108.69043	-892.26068	1177.98157	47.06782	-362.77304	1128.90955	-11.54958	-933.49982	1169.83643	-118.82619	-536.23462	1111.65552	-140.43198							-594.34985	959.92017	226.91132	-811.88544	459.26364	171.61359	-532.94147	570.48297	-59.81592	-787.97266	98.67107	206.90555	-488.86200	219.97037	70.42879	
591	5.900	-554.05847	1456.29712	-239.15933	-607.85748	1681.76917	-35.44014	-697.02313	1578.12415	-140.38812	-469.65530	1536.44702	-142.49049	-762.88507	1465.82117	21.16174	-449.22876	1427.79980	-35.23374	-625.09680	1318.49927	-53.04620	-571.74902	1448.09119	101.91273	-890.05743	1176.39514	38.36224	-362.80923	1130.18152	-12.93966	-931.59589	1166.95288	-127.95623	-533.05634	1111.80420	-145.09874							-596.33044	959.42877	219.35318	-813.26294	459.40497	169.87325	-533.43451	573.55499	-72.48524	-787.38953	101.87974	212.84224	-495.51218	218.63556	50.57180	
592	5.910	-554.98975	1454.98523	-245.25270	-608.79932	1681.92810	-43.52416	-698.22931	1577.63489	-147.77963	-470.33102	1535.67859	-149.84839	-765.18384	1465.21741	12.07822	-450.54977	1428.15051	-38.74275	-625.78339	1318.79358	-60.26338	-574.24341	1447.67188	95.29728	-889.27734	1174.62744	30.88530	-362.96179	1131.23499	-13.82497	-930.21460	1163.90295	-136.17496	-530.51501	1111.93433	-150.34322							-599.18677	959.88422	212.95416	-813.92834	459.21085	167.48782	-532.34692	576.88165	-81.91224	-787.39557	102.08839	213.20102	-503.08914	214.95543	32.45247	
